<?xml version="1.0" encoding="UTF-8"?><svg xmlns="http://www.w3.org/2000/svg" xmlns:xlink="http://www.w3.org/1999/xlink" color-interpolation="auto" color-rendering="auto" fill="rgb(0,0,0)" fill-opacity="0" font-family="'Dialog'" font-size="12px" font-style="normal" font-weight="normal" height="502" image-rendering="auto" shape-rendering="auto" stroke="rgb(0,0,0)" stroke-dasharray="none" stroke-dashoffset="0" stroke-linecap="square" stroke-linejoin="miter" stroke-miterlimit="10" stroke-opacity="0" stroke-width="1" text-rendering="auto" viewbox="0 0 212 502" width="212"><!--Generated by the Batik Graphics2D SVG Generator--><defs id="genericDefs"/><g><defs id="defs1"><clipPath clipPathUnits="userSpaceOnUse" id="57a34760-3b54-4628-8bed-8295791820bf"><path d="M-7 -7 L187 -7 L187 51 L-7 51 L-7 -7 Z"/></clipPath><clipPath clipPathUnits="userSpaceOnUse" id="7b2f70f0-24c4-4165-84f5-72c4bed5d0db"><path d="M-7 -7 L187 -7 L187 51 L-7 51 L-7 -7 Z"/></clipPath><clipPath clipPathUnits="userSpaceOnUse" id="79d9d2c8-bd91-4f68-8be5-6a911eec14aa"><path d="M-7 -7 L186 -7 L186 51 L-7 51 L-7 -7 Z"/></clipPath><clipPath clipPathUnits="userSpaceOnUse" id="85f35e6c-dd21-40f3-afb2-26332ae612fa"><path d="M-7 -7 L186 -7 L186 51 L-7 51 L-7 -7 Z"/></clipPath><clipPath clipPathUnits="userSpaceOnUse" id="4d40e4e4-7677-4ec2-ac9d-358997ed8ab5"><path d="M-7 -7 L186 -7 L186 51 L-7 51 L-7 -7 Z"/></clipPath><clipPath clipPathUnits="userSpaceOnUse" id="7916d4a9-8d56-4703-b2fc-ba770649f6c1"><path d="M-7 -7 L186 -7 L186 51 L-7 51 L-7 -7 Z"/></clipPath><clipPath clipPathUnits="userSpaceOnUse" id="d75a55ce-7a16-4c71-bc64-0c3caa8fc309"><path d="M-7 -7 L186 -7 L186 51 L-7 51 L-7 -7 Z"/></clipPath><clipPath clipPathUnits="userSpaceOnUse" id="4b77781d-0c69-4e48-b6ce-7588a4883428"><path d="M-7 -7 L186 -7 L186 51 L-7 51 L-7 -7 Z"/></clipPath><clipPath clipPathUnits="userSpaceOnUse" id="fee9d0de-12c0-458c-970e-cc0ddc32c7a0"><path d="M-7 -7 L186 -7 L186 51 L-7 51 L-7 -7 Z"/></clipPath><clipPath clipPathUnits="userSpaceOnUse" id="56777b04-8abc-467d-934d-46896acc2ed6"><path d="M-7 -7 L186 -7 L186 51 L-7 51 L-7 -7 Z"/></clipPath><clipPath clipPathUnits="userSpaceOnUse" id="57c4b20e-c5fb-46b6-b3bd-3b8eea1c86c5"><path d="M-7 -7 L186 -7 L186 51 L-7 51 L-7 -7 Z"/></clipPath><clipPath clipPathUnits="userSpaceOnUse" id="ea7e04d1-4ad5-447f-9652-9daaea0a337e"><path d="M-7 -7 L186 -7 L186 51 L-7 51 L-7 -7 Z"/></clipPath><clipPath clipPathUnits="userSpaceOnUse" id="17df65b6-6d04-46fb-882f-d8ccde6ab2a1"><path d="M-175 -40 L350 -40 L350 80 L-175 80 L-175 -40 Z"/></clipPath><clipPath clipPathUnits="userSpaceOnUse" id="0b4931f7-16a8-4d67-91e5-38b9b003a886"><path d="M-176 -40 L352 -40 L352 80 L-176 80 L-176 -40 Z"/></clipPath><clipPath clipPathUnits="userSpaceOnUse" id="2f1786ff-09b5-485b-a87d-5126915e8c9a"><path d="M0 0 L104 0 L104 157 L0 157 L0 0 Z"/></clipPath><clipPath clipPathUnits="userSpaceOnUse" id="3f0433cc-65e8-458e-9ea9-dcc469058bfc"><path d="M0 0 L0 157 L104 157 L104 0 Z"/></clipPath><clipPath clipPathUnits="userSpaceOnUse" id="42172a0a-2fff-4281-b4db-b9b0d5b5f754"><path d="M0 0 L104 0 L104 143 L0 143 L0 0 Z"/></clipPath><clipPath clipPathUnits="userSpaceOnUse" id="11655e1d-3273-44c3-aade-3f307b85e70c"><path d="M0 0 L0 143 L104 143 L104 0 Z"/></clipPath><clipPath clipPathUnits="userSpaceOnUse" id="48140b25-ec2a-4655-9685-c674ca416a16"><path d="M0 0 L104 0 L104 143 L0 143 L0 0 Z"/></clipPath><clipPath clipPathUnits="userSpaceOnUse" id="81cc446e-f671-47bf-9982-395a70f8eb08"><path d="M0 0 L0 143 L104 143 L104 0 Z"/></clipPath><clipPath clipPathUnits="userSpaceOnUse" id="e26970ed-384b-4ba4-a3ff-3833a2f1cf9f"><path d="M0 0 L104 0 L104 143 L0 143 L0 0 Z"/></clipPath><clipPath clipPathUnits="userSpaceOnUse" id="75e811ee-69b9-4668-93e2-fe49c85ee11b"><path d="M0 0 L0 143 L104 143 L104 0 Z"/></clipPath><clipPath clipPathUnits="userSpaceOnUse" id="9ff92871-6741-4fe8-b4cc-18859be3898d"><path d="M0 0 L104 0 L104 143 L0 143 L0 0 Z"/></clipPath><clipPath clipPathUnits="userSpaceOnUse" id="b2276c71-de73-4110-b4a8-fc58a55a63c0"><path d="M0 0 L0 143 L104 143 L104 0 Z"/></clipPath></defs><g fill="white" fill-opacity="1" stroke="white" stroke-opacity="1" text-rendering="geometricPrecision"><rect height="502" stroke="none" width="212" x="0" y="0"/><rect fill="none" height="501" image-rendering="optimizeQuality" stroke="black" transform="translate(-301,-143)" width="211" x="301" y="143"/><text fill="black" image-rendering="optimizeQuality" stroke="none" transform="translate(-301,-143)" x="308" xml:space="preserve" y="160">Dereferencing Algorithm Flowchart</text><line fill="none" image-rendering="optimizeQuality" stroke="black" transform="translate(-301,-143)" x1="301" x2="493" y1="167" y2="167"/><line fill="none" image-rendering="optimizeQuality" stroke="black" transform="translate(-301,-143)" x1="499" x2="499" y1="143" y2="157"/><line fill="none" image-rendering="optimizeQuality" stroke="black" transform="translate(-301,-143)" x1="499" x2="493" y1="157" y2="167"/></g><g data="{&quot;name&quot;:&quot;DID URL Dereferencing Algorithm&quot;,&quot;modelType&quot;:&quot;FlowchartStart&quot;}" hyper="" model-id="shape-lGTgKPmGAqBwARTT" style="pointer-events: auto; cursor: pointer;"><g fill="rgb(122,207,245)" fill-opacity="1" font-family="sans-serif" font-size="11px" image-rendering="optimizeQuality" stroke="rgb(122,207,245)" stroke-opacity="1" text-rendering="geometricPrecision" transform="translate(12,34)"><ellipse clip-path="url(#7b2f70f0-24c4-4165-84f5-72c4bed5d0db)" cx="88" cy="20" rx="88" ry="20" stroke="none"/></g><g fill="black" fill-opacity="1" font-family="sans-serif" font-size="11px" image-rendering="optimizeQuality" stroke="black" stroke-linecap="butt" stroke-linejoin="round" stroke-miterlimit="0" stroke-opacity="1" text-rendering="geometricPrecision" transform="translate(12,34)"><ellipse clip-path="url(#7b2f70f0-24c4-4165-84f5-72c4bed5d0db)" cx="88" cy="20" fill="none" rx="88" ry="20"/></g></g><g data="{&quot;name&quot;:&quot;1. Prepare for Resolution&quot;,&quot;modelType&quot;:&quot;FlowchartProcess&quot;}" hyper="" model-id="shape-p1bgKPmGAqBwARTg" style="pointer-events: auto; cursor: pointer;"><g fill="rgb(255,192,192)" fill-opacity="1" font-family="sans-serif" font-size="11px" image-rendering="optimizeQuality" stroke="rgb(255,192,192)" stroke-opacity="1" text-rendering="geometricPrecision" transform="translate(13,128)"><rect clip-path="url(#85f35e6c-dd21-40f3-afb2-26332ae612fa)" height="40" rx="5" ry="5" stroke="none" width="175" x="0" y="0"/></g><g fill="black" fill-opacity="1" font-family="sans-serif" font-size="11px" image-rendering="optimizeQuality" stroke="black" stroke-linecap="butt" stroke-linejoin="round" stroke-miterlimit="0" stroke-opacity="1" text-rendering="geometricPrecision" transform="translate(13,128)"><rect clip-path="url(#85f35e6c-dd21-40f3-afb2-26332ae612fa)" fill="none" height="40" rx="5" ry="5" width="175" x="0" y="0"/></g></g><g data="{&quot;name&quot;:&quot;2. Resolve the DID URL&quot;,&quot;modelType&quot;:&quot;FlowchartProcess&quot;}" hyper="" model-id="shape-IMPgKPmGAqBwARUI" style="pointer-events: auto; cursor: pointer;"><g fill="rgb(255,224,192)" fill-opacity="1" font-family="sans-serif" font-size="11px" image-rendering="optimizeQuality" stroke="rgb(255,224,192)" stroke-opacity="1" text-rendering="geometricPrecision" transform="translate(13,208)"><rect clip-path="url(#7916d4a9-8d56-4703-b2fc-ba770649f6c1)" height="40" rx="5" ry="5" stroke="none" width="175" x="0" y="0"/></g><g fill="black" fill-opacity="1" font-family="sans-serif" font-size="11px" image-rendering="optimizeQuality" stroke="black" stroke-linecap="butt" stroke-linejoin="round" stroke-miterlimit="0" stroke-opacity="1" text-rendering="geometricPrecision" transform="translate(13,208)"><rect clip-path="url(#7916d4a9-8d56-4703-b2fc-ba770649f6c1)" fill="none" height="40" rx="5" ry="5" width="175" x="0" y="0"/></g></g><g data="{&quot;name&quot;:&quot;3. Determine Handling Strategy&quot;,&quot;modelType&quot;:&quot;FlowchartProcess&quot;}" hyper="" model-id="shape-LG_gKPmGAqBwARUi" style="pointer-events: auto; cursor: pointer;"><g fill="rgb(255,255,192)" fill-opacity="1" font-family="sans-serif" font-size="11px" image-rendering="optimizeQuality" stroke="rgb(255,255,192)" stroke-opacity="1" text-rendering="geometricPrecision" transform="translate(13,288)"><rect clip-path="url(#4b77781d-0c69-4e48-b6ce-7588a4883428)" height="40" rx="5" ry="5" stroke="none" width="175" x="0" y="0"/></g><g fill="black" fill-opacity="1" font-family="sans-serif" font-size="11px" image-rendering="optimizeQuality" stroke="black" stroke-linecap="butt" stroke-linejoin="round" stroke-miterlimit="0" stroke-opacity="1" text-rendering="geometricPrecision" transform="translate(13,288)"><rect clip-path="url(#4b77781d-0c69-4e48-b6ce-7588a4883428)" fill="none" height="40" rx="5" ry="5" width="175" x="0" y="0"/></g></g><g data="{&quot;name&quot;:&quot;4. Invoke Handler&quot;,&quot;modelType&quot;:&quot;FlowchartProcess&quot;}" hyper="" model-id="shape-CjQQKPmGAqBwARU8" style="pointer-events: auto; cursor: pointer;"><g fill="rgb(192,255,192)" fill-opacity="1" font-family="sans-serif" font-size="11px" image-rendering="optimizeQuality" stroke="rgb(192,255,192)" stroke-opacity="1" text-rendering="geometricPrecision" transform="translate(13,368)"><rect clip-path="url(#56777b04-8abc-467d-934d-46896acc2ed6)" height="40" rx="5" ry="5" stroke="none" width="175" x="0" y="0"/></g><g fill="black" fill-opacity="1" font-family="sans-serif" font-size="11px" image-rendering="optimizeQuality" stroke="black" stroke-linecap="butt" stroke-linejoin="round" stroke-miterlimit="0" stroke-opacity="1" text-rendering="geometricPrecision" transform="translate(13,368)"><rect clip-path="url(#56777b04-8abc-467d-934d-46896acc2ed6)" fill="none" height="40" rx="5" ry="5" width="175" x="0" y="0"/></g></g><g data="{&quot;name&quot;:&quot;5. Use the Handler Result&quot;,&quot;modelType&quot;:&quot;FlowchartProcess&quot;}" hyper="" model-id="shape-sk4QKPmGAqBwARVW" style="pointer-events: auto; cursor: pointer;"><g fill="rgb(192,255,255)" fill-opacity="1" font-family="sans-serif" font-size="11px" image-rendering="optimizeQuality" stroke="rgb(192,255,255)" stroke-opacity="1" text-rendering="geometricPrecision" transform="translate(13,448)"><rect clip-path="url(#ea7e04d1-4ad5-447f-9652-9daaea0a337e)" height="40" rx="5" ry="5" stroke="none" width="175" x="0" y="0"/></g><g fill="black" fill-opacity="1" font-family="sans-serif" font-size="11px" image-rendering="optimizeQuality" stroke="black" stroke-linecap="butt" stroke-linejoin="round" stroke-miterlimit="0" stroke-opacity="1" text-rendering="geometricPrecision" transform="translate(13,448)"><rect clip-path="url(#ea7e04d1-4ad5-447f-9652-9daaea0a337e)" fill="none" height="40" rx="5" ry="5" width="175" x="0" y="0"/></g></g><g fill="black" fill-opacity="1" font-family="sans-serif" font-size="11px" image-rendering="optimizeQuality" stroke="black" stroke-opacity="1" text-rendering="geometricPrecision" transform="translate(13,448)"><text clip-path="url(#17df65b6-6d04-46fb-882f-d8ccde6ab2a1)" stroke="none" x="24" xml:space="preserve" y="24">5. Use the Handler Result</text></g><g fill="black" fill-opacity="1" font-family="sans-serif" font-size="11px" image-rendering="optimizeQuality" stroke="black" stroke-opacity="1" text-rendering="geometricPrecision" transform="translate(13,368)"><text clip-path="url(#17df65b6-6d04-46fb-882f-d8ccde6ab2a1)" stroke="none" x="43" xml:space="preserve" y="24">4. Invoke Handler</text></g><g fill="black" fill-opacity="1" font-family="sans-serif" font-size="11px" image-rendering="optimizeQuality" stroke="black" stroke-opacity="1" text-rendering="geometricPrecision" transform="translate(13,288)"><text clip-path="url(#17df65b6-6d04-46fb-882f-d8ccde6ab2a1)" stroke="none" x="10" xml:space="preserve" y="24">3. Determine Handling Strategy</text></g><g fill="black" fill-opacity="1" font-family="sans-serif" font-size="11px" image-rendering="optimizeQuality" stroke="black" stroke-opacity="1" text-rendering="geometricPrecision" transform="translate(13,208)"><text clip-path="url(#17df65b6-6d04-46fb-882f-d8ccde6ab2a1)" stroke="none" x="28" xml:space="preserve" y="24">2. Resolve the DID URL</text></g><g fill="black" fill-opacity="1" font-family="sans-serif" font-size="11px" image-rendering="optimizeQuality" stroke="black" stroke-opacity="1" text-rendering="geometricPrecision" transform="translate(13,128)"><text clip-path="url(#17df65b6-6d04-46fb-882f-d8ccde6ab2a1)" stroke="none" x="25" xml:space="preserve" y="24">1. Prepare for Resolution</text></g><g fill="black" fill-opacity="1" font-family="sans-serif" font-size="11px" image-rendering="optimizeQuality" stroke="black" stroke-opacity="1" text-rendering="geometricPrecision" transform="translate(12,34)"><text clip-path="url(#0b4931f7-16a8-4d67-91e5-38b9b003a886)" stroke="none" x="5" xml:space="preserve" y="24">DID URL Dereferencing Algorithm</text></g><g data="{&quot;modelType&quot;:&quot;FlowchartFlowline&quot;}" hyper="" model-id="connector-QsngKPmGAqBwART4" style="pointer-events: auto; cursor: pointer;"><g fill="black" fill-opacity="1" font-family="sans-serif" font-size="11px" image-rendering="optimizeQuality" stroke="black" stroke-linecap="butt" stroke-linejoin="round" stroke-opacity="1" text-rendering="geometricPrecision" transform="translate(50,24)"><line clip-path="url(#3f0433cc-65e8-458e-9ea9-dcc469058bfc)" fill="none" x1="50" x2="50" y1="50" y2="103"/><polygon clip-path="url(#3f0433cc-65e8-458e-9ea9-dcc469058bfc)" points=" 50 103 56 91 44 91" stroke="none"/><polygon clip-path="url(#3f0433cc-65e8-458e-9ea9-dcc469058bfc)" fill="none" points=" 50 103 56 91 44 91"/></g></g><g data="{&quot;modelType&quot;:&quot;FlowchartFlowline&quot;}" hyper="" model-id="connector-qMPgKPmGAqBwARUN" style="pointer-events: auto; cursor: pointer;"><g fill="black" fill-opacity="1" font-family="sans-serif" font-size="11px" image-rendering="optimizeQuality" stroke="black" stroke-linecap="butt" stroke-linejoin="round" stroke-opacity="1" text-rendering="geometricPrecision" transform="translate(50,118)"><line clip-path="url(#11655e1d-3273-44c3-aade-3f307b85e70c)" fill="none" x1="50" x2="50" y1="50" y2="89"/><polygon clip-path="url(#11655e1d-3273-44c3-aade-3f307b85e70c)" points=" 50 89 56 77 44 77" stroke="none"/><polygon clip-path="url(#11655e1d-3273-44c3-aade-3f307b85e70c)" fill="none" points=" 50 89 56 77 44 77"/></g></g><g data="{&quot;modelType&quot;:&quot;FlowchartFlowline&quot;}" hyper="" model-id="connector-Em_gKPmGAqBwARUn" style="pointer-events: auto; cursor: pointer;"><g fill="black" fill-opacity="1" font-family="sans-serif" font-size="11px" image-rendering="optimizeQuality" stroke="black" stroke-linecap="butt" stroke-linejoin="round" stroke-opacity="1" text-rendering="geometricPrecision" transform="translate(50,198)"><line clip-path="url(#81cc446e-f671-47bf-9982-395a70f8eb08)" fill="none" x1="50" x2="50" y1="50" y2="89"/><polygon clip-path="url(#81cc446e-f671-47bf-9982-395a70f8eb08)" points=" 50 89 56 77 44 77" stroke="none"/><polygon clip-path="url(#81cc446e-f671-47bf-9982-395a70f8eb08)" fill="none" points=" 50 89 56 77 44 77"/></g></g><g data="{&quot;modelType&quot;:&quot;FlowchartFlowline&quot;}" hyper="" model-id="connector-.jQQKPmGAqBwARVB" style="pointer-events: auto; cursor: pointer;"><g fill="black" fill-opacity="1" font-family="sans-serif" font-size="11px" image-rendering="optimizeQuality" stroke="black" stroke-linecap="butt" stroke-linejoin="round" stroke-opacity="1" text-rendering="geometricPrecision" transform="translate(50,278)"><line clip-path="url(#75e811ee-69b9-4668-93e2-fe49c85ee11b)" fill="none" x1="50" x2="50" y1="50" y2="89"/><polygon clip-path="url(#75e811ee-69b9-4668-93e2-fe49c85ee11b)" points=" 50 89 56 77 44 77" stroke="none"/><polygon clip-path="url(#75e811ee-69b9-4668-93e2-fe49c85ee11b)" fill="none" points=" 50 89 56 77 44 77"/></g></g><g data="{&quot;modelType&quot;:&quot;FlowchartFlowline&quot;}" hyper="" model-id="connector-.k4QKPmGAqBwARVb" style="pointer-events: auto; cursor: pointer;"><g fill="black" fill-opacity="1" font-family="sans-serif" font-size="11px" image-rendering="optimizeQuality" stroke="black" stroke-linecap="butt" stroke-linejoin="round" stroke-opacity="1" text-rendering="geometricPrecision" transform="translate(50,358)"><line clip-path="url(#b2276c71-de73-4110-b4a8-fc58a55a63c0)" fill="none" x1="50" x2="50" y1="50" y2="89"/><polygon clip-path="url(#b2276c71-de73-4110-b4a8-fc58a55a63c0)" points=" 50 89 56 77 44 77" stroke="none"/><polygon clip-path="url(#b2276c71-de73-4110-b4a8-fc58a55a63c0)" fill="none" points=" 50 89 56 77 44 77"/></g></g></g></svg>